<?xml version="1.0" encoding="UTF-8" standalone="no"?>
<svg
   viewBox="0 0 800 800"
   version="1.1"
   id="svg2"
   sodipodi:docname="little_max.svg"
   width="800"
   height="800"
   inkscape:version="1.4 (86a8ad7, 2024-10-11)"
   xmlns:inkscape="http://www.inkscape.org/namespaces/inkscape"
   xmlns:sodipodi="http://sodipodi.sourceforge.net/DTD/sodipodi-0.dtd"
   xmlns="http://www.w3.org/2000/svg"
   xmlns:svg="http://www.w3.org/2000/svg">
  <defs
     id="defs2">
    <inkscape:path-effect
       effect="fillet_chamfer"
       id="path-effect4"
       is_visible="true"
       lpeversion="1"
       nodesatellites_param="F,0,0,1,0,200,0,1 @ F,0,0,1,0,200,0,1 @ F,0,0,1,0,200,0,1 @ F,0,0,1,0,200,0,1"
       radius="200"
       unit="px"
       method="auto"
       mode="F"
       chamfer_steps="1"
       flexible="false"
       use_knot_distance="true"
       apply_no_radius="true"
       apply_with_radius="true"
       only_selected="false"
       hide_knots="false" />
    <inkscape:path-effect
       effect="bend_path"
       id="path-effect2"
       is_visible="true"
       lpeversion="1"
       bendpath="m 103.25781,720 c 209.21213,-66.0272 407.95662,-71.34212 593.48438,0"
       prop_scale="1"
       scale_y_rel="false"
       vertical="false"
       hide_knot="false"
       bendpath-nodetypes="cc" />
  </defs>
  <sodipodi:namedview
     id="namedview2"
     pagecolor="#ffffff"
     bordercolor="#999999"
     borderopacity="1"
     inkscape:showpageshadow="2"
     inkscape:pageopacity="0"
     inkscape:pagecheckerboard="0"
     inkscape:deskcolor="#d1d1d1"
     showgrid="false"
     inkscape:zoom="0.39794922"
     inkscape:cx="750.09571"
     inkscape:cy="463.627"
     inkscape:window-width="2560"
     inkscape:window-height="1377"
     inkscape:window-x="1912"
     inkscape:window-y="-8"
     inkscape:window-maximized="1"
     inkscape:current-layer="svg2" />
  <path
     d="M 199.9999,0.19651182 599.21482,0.58876426 A 200.39341,200.39341 45 0 1 799.41123,200.78518 l 0.39226,399.21492 A 199.80358,199.80358 134.97185 0 1 600,800 H 200 A 200,200 45 0 1 0,600 V 200 A 199.80358,199.80358 135.02815 0 1 199.9999,0.19651182 Z"
     fill="#000000"
     fill-opacity="1"
     id="path1"
     style="fill:#000000;fill-opacity:1;stroke:#000000;stroke-width:1.562;stroke-dasharray:none;stroke-opacity:1;paint-order:fill markers stroke"
     sodipodi:nodetypes="ccccc"
     inkscape:path-effect="#path-effect4"
     inkscape:original-d="M 0,0 C 266.40491,0.26175869 532.80982,0.52351739 799.21472,0.78527608 799.47648,267.19018 799.73824,533.59509 800,800 533.33333,800 266.66667,800 0,800 0,533.33333 0,266.66667 0,0 Z" />
  <g
     class=""
     id="g2"
     transform="matrix(1.553197,0,0,1.6314803,2.3815687,-17.659778)">
    <path
       d="m 138.798,35.342 -110.068,78.926 95.777,29.095 111.305,-87.09 -97.014,-20.93 z m 112.986,31.082 -118.047,89.96 51.07,131.102 8.534,-7.455 4.23,-15.708 c -5.89553,-3.84102 -9.65364,-12.30505 -9.08,-20.45 0.56217,-7.89422 5.06042,-13.50916 10.997,-13.727 1.19427,-0.0437 2.41203,0.13458 3.62,0.53 1.06122,0.35345 2.10625,0.87177 3.113,1.544 l 7.94,-29.48 c 0.0964,-0.35353 0.21427,-0.70084 0.353,-1.04 0.019,-0.0428 0.0383,-0.0855 0.058,-0.128 0.097,-0.23271 0.20379,-0.46125 0.32,-0.685 0.0295,-0.0513 0.0595,-0.1023 0.09,-0.153 0.11487,-0.21323 0.23831,-0.42173 0.37,-0.625 0.16585,-0.24974 0.34407,-0.49104 0.534,-0.723 0.0219,-0.0248 0.0439,-0.0495 0.066,-0.074 0.17108,-0.20593 0.35125,-0.40413 0.54,-0.594 0.20687,-0.20815 0.42379,-0.40605 0.65,-0.593 l 0.004,-0.002 c 0.14966,-0.11886 0.30307,-0.23291 0.46,-0.342 0.0875,-0.0673 0.17613,-0.13297 0.266,-0.197 0.16404,-0.10541 0.33146,-0.20546 0.502,-0.3 0.0891,-0.0539 0.1791,-0.10623 0.27,-0.157 0.14476,-0.0733 0.29149,-0.14265 0.44,-0.208 0.12527,-0.0623 0.25197,-0.12163 0.38,-0.178 0.14434,-0.0544 0.29005,-0.10509 0.437,-0.152 0.1355,-0.051 0.2722,-0.0986 0.41,-0.143 0.13388,-0.0364 0.26858,-0.0698 0.404,-0.1 0.15562,-0.0422 0.31234,-0.0802 0.47,-0.114 0.1693,-0.0282 0.33937,-0.0515 0.51,-0.07 0.12297,-0.0192 0.24633,-0.0359 0.37,-0.05 h 0.01 l 0.01,-0.003 33.624,-2.873 c 1.56804,-5.84774 5.52219,-9.59166 10.326,-9.777 1.19491,-0.044 2.41336,0.13433 3.622,0.53 3.25964,1.07708 6.2923,3.68296 8.527,7.327 L 291.227,190.203 251.785,66.42 Z M 137.25,74.03 c 8.72378,0.18148 14.076,3.834104 12.798,8.734 -1.48224,5.68808 -11.30418,11.05975 -21.938,11.998 -10.63493,0.938266 -18.05395,-2.913177 -16.57,-8.602 1.4803,-5.688582 11.30285,-11.061479 21.938,-12 1.28423,-0.112592 2.54719,-0.156142 3.77,-0.13 z m 100.228,23.517 h 0.002 c 1.19427,-0.04371 2.41203,0.134579 3.62,0.53 7.38041,2.41475 12.803,12.23737 12.112,21.94 -0.69156,9.70336 -7.23596,15.61154 -14.617,13.196 -7.38108,-2.41351 -12.80478,-12.23653 -12.114,-21.94 0.56253,-7.89425 5.06122,-13.508815 10.998,-13.726 z M 24.22,131.71 71.212,245.834 165.448,286.214 119.46,160.644 24.22,131.709 Z m 147.886,17.43 c 1.19484,-0.0446 2.41329,0.13298 3.622,0.528 7.37973,2.41598 12.80121,12.23821 12.11,21.94 -0.69126,9.70317 -7.23511,15.61171 -14.616,13.197 -7.38041,-2.41475 -12.803,-12.23737 -12.112,-21.94 0.56244,-7.89329 5.06011,-13.50761 10.996,-13.726 z m -75.123,13.016 c 5.13487,-0.2797 12.46404,6.23809 16.955,15.078 4.82959,9.50493 4.63931,18.2288 -0.425,19.485 -5.06511,1.25387 -13.08488,-5.43442 -17.913,-14.939 -4.826342,-9.50129 -4.636548,-18.22106 0.424,-19.48 0.305925,-0.0769 0.626327,-0.12499 0.96,-0.144 z m 263.393,40.21 -112.102,9.577 113.762,79.926 113.598,-16.956 -115.258,-72.55 z M 70.82,212.022 c 5.134856,-0.28148 12.465393,6.23676 16.957,15.078 4.828985,9.50432 4.63871,18.22742 -0.425,19.484 -5.064866,1.25433 -13.08463,-5.4335 -17.913,-14.938 -4.827774,-9.50309 -4.637513,-18.22466 0.425,-19.482 0.306012,-0.0755 0.626412,-0.12222 0.96,-0.14 z m 157.378,7.813 -41.538,154.188 115.616,99.454 47.147,-168.47 -121.225,-85.17 z m 126.987,11.168 c 6.29949,0.11683 13.66863,1.90663 19.693,4.783 10.0775,4.81267 13.48327,11.18993 7.607,14.244 -5.87463,3.05496 -18.80747,1.63032 -28.886,-3.182 -10.07765,-4.81224 -13.4847,-11.18938 -7.61,-14.244 2.14425,-1.1142 5.34926,-1.6719 9.195,-1.6 z M 487.78,291.3 366.9,309.343 320.077,476.659 436.374,444.889 Z m -181.808,10.8 c 1.41224,0.002 2.83789,0.31885 4.238,0.943 8.55458,3.81703 14.31815,18.01888 12.873,31.72 -1.44552,13.69974 -9.55123,21.71054 -18.105,17.893 -8.55494,-3.81631 -14.31905,-18.01838 -12.874,-31.72 1.17648,-11.14417 6.84875,-18.84844 13.868,-18.836 z m 154.086,11.636 c 3.26287,-0.0966 5.96713,1.35901 7.673,4.13 4.17306,6.78098 1.40797,19.51175 -6.176,28.435 -7.58383,8.92229 -17.11407,10.65848 -21.287,3.878 -4.17294,-6.78061 -1.40836,-19.51067 6.175,-28.434 4.19094,-4.93008 9.20512,-7.87908 13.616,-8.008 z M 391.362,324.4 c 3.26242,-0.0962 5.96631,1.35931 7.672,4.13 4.17306,6.78098 1.40797,19.51175 -6.176,28.435 -7.58406,8.92225 -17.11437,10.658 -21.287,3.877 -4.17202,-6.78148 -1.40657,-19.51141 6.177,-28.434 4.1906,-4.92969 9.20434,-7.87865 13.615,-8.008 z m -173.996,13.305 c 1.41295,0.002 2.83929,0.31989 4.24,0.945 8.55422,3.81776 14.31725,18.01938 12.872,31.72 -1.44515,13.70103 -9.55164,21.7126 -18.106,17.894 -8.55458,-3.81703 -14.31815,-18.01888 -12.873,-31.72 1.17536,-11.14472 6.84683,-18.85065 13.866,-18.84 z m 212.278,60.87 c 3.26154,-0.0956 5.96466,1.35992 7.67,4.13 4.1734,6.78018 1.40926,19.5103 -6.174,28.434 -7.58428,8.92221 -17.11466,10.65753 -21.287,3.876 -4.17294,-6.78061 -1.40836,-19.51067 6.175,-28.434 4.19094,-4.93008 9.20512,-7.87908 13.616,-8.008 z m -70.332,19.488 c 3.26181,-0.0952 5.96495,1.36102 7.67,4.132 4.1734,6.78018 1.40926,19.5103 -6.174,28.434 -7.58472,8.92212 -17.11526,10.65657 -21.287,3.874 -4.17248,-6.78105 -1.40747,-19.51104 6.176,-28.434 4.19107,-4.92982 9.20525,-7.87845 13.616,-8.007 z"
       fill="#ffffff"
       fill-opacity="1"
       id="path2"
       sodipodi:nodetypes="cccccccccccccccccccccccsccccccccccccccccccccccccccccccccccccccccccccccscccccccccccccccccccccccccccccccccccccccccccccccccccsccccccccccccccccccccccccccccccc"
       style="stroke:#000000;stroke-width:1.00009;stroke-dasharray:none;stroke-opacity:1" />
  </g>
  <path
     d="m 154.46398,739.63879 c -2.94116,2.5399 -7.82079,5.44141 -14.64386,8.80229 -6.28511,3.10611 -11.47289,5.31086 -15.64601,6.58932 -2.98409,0.91419 -5.26573,1.11786 -6.85562,0.59867 -2.16309,-0.69907 -3.77688,-2.71416 -4.83041,-6.05141 -1.26012,-5.02535 -2.51666,-10.05186 -3.76959,-15.07953 -3.51435,-13.88465 -7.87186,-29.18456 -13.089634,-45.8103 -0.402385,-1.28214 -0.307818,-2.50798 0.287181,-3.6774 0.626164,-1.17907 1.597746,-1.97429 2.912738,-2.38305 1.346315,-0.41849 2.597025,-0.31393 3.748785,0.31264 1.18312,0.61694 1.97007,1.56933 2.36314,2.85473 5.1607,16.8762 9.44636,32.39666 12.87641,46.46787 0.50133,2.33105 1.00376,4.66179 1.50728,6.9922 0.52284,2.55291 1.10974,4.77691 1.7574,6.67027 7.81487,-2.29972 17.04989,-7.06821 28.01005,-14.23639 0.46958,-0.29399 0.93046,-0.50399 1.38229,-0.63001 1.29536,-0.36129 2.52287,-0.14943 3.67887,0.63469 1.01073,0.72698 1.68064,1.69444 2.01245,2.90065 0.53097,1.93023 -0.0396,3.61032 -1.70147,5.04476 z m 34.97088,-67.24752 c -2.03041,0.47093 -4.62369,0.86931 -7.79091,1.20824 -2.62515,0.28993 -5.25014,0.58887 -7.8749,0.89673 1.44832,9.01444 3.18097,17.54824 5.16972,25.59208 0.52575,2.12649 1.23648,4.7355 2.13235,7.83372 0.89527,3.09615 1.60524,5.70981 2.12978,7.83437 0.70462,2.85397 1.23909,5.47739 1.60496,7.8674 4.75511,-1.24031 9.51725,-2.44999 14.28606,-3.62818 1.27558,-0.29797 2.44517,-0.0871 3.50539,0.63128 1.08358,0.68094 1.77399,1.67799 2.0742,2.98884 0.30718,1.34132 0.12694,2.56953 -0.5371,3.6855 -0.64092,1.07857 -1.59228,1.76429 -2.85665,2.05974 -1.67218,0.39074 -4.21751,1.03731 -7.54928,1.93633 -3.3969,0.88375 -5.82354,1.51478 -7.54922,1.94314 -1.9771,0.49075 -4.89041,1.50888 -8.70061,3.06745 -3.781,1.58472 -6.65418,2.64857 -8.66143,3.1805 -1.25507,0.33261 -2.4361,0.16241 -3.54635,-0.51152 -1.07221,-0.65171 -1.78451,-1.62578 -2.13428,-2.92442 -0.34978,-1.29863 -0.22677,-2.51423 0.37234,-3.64623 0.62917,-1.14003 1.57782,-1.87903 2.84343,-2.21447 1.96764,-0.5215 5.10473,-1.68855 9.48226,-3.48824 -0.32594,-2.53114 -0.8903,-5.3743 -1.69541,-8.5254 -0.53403,-2.09012 -1.29137,-4.6103 -2.27299,-7.55447 -0.95933,-2.98416 -1.70317,-5.50372 -2.23102,-7.56513 -1.78925,-6.98759 -3.60282,-15.86338 -5.38962,-26.56366 -2.0364,0.5835 -4.0709,1.17233 -6.10349,1.76641 -2.03652,0.57894 -4.07121,1.16316 -6.10403,1.7526 -1.35268,0.35992 -2.60141,0.22534 -3.74963,-0.40495 -1.14818,-0.63026 -1.90713,-1.62354 -2.27435,-2.98225 -0.75859,-2.80677 0.30897,-4.75205 3.21883,-5.81882 2.4729,-0.91459 7.30857,-2.33324 14.34446,-4.11515 6.32173,-1.60104 14.47244,-2.9184 24.35433,-3.82484 2.93934,-0.26204 4.73161,1.05001 5.38363,3.9154 0.32613,1.43325 0.0448,2.69959 -0.83913,3.80002 -0.79203,0.91917 -1.80507,1.5212 -3.04135,1.80793 z m 72.89263,-15.18257 c -2.4001,0.3881 -6.06176,0.79752 -11.09379,1.28373 -4.86946,0.492 -8.57986,1.00509 -11.06664,1.49236 -1.13927,0.20874 -2.27817,0.4193 -3.4167,0.63167 0.89348,4.24475 2.60337,11.00099 5.13302,20.40994 2.33763,8.74067 3.95449,15.60349 4.86015,20.50884 0.19878,1.07668 0.60724,2.68393 1.22456,4.82754 0.61683,2.14189 1.02653,3.76851 1.22996,4.87427 0.38452,2.09004 0.37958,3.95069 -0.0101,5.5803 -0.47539,2.18645 -1.60324,3.44547 -3.38873,3.78401 -1.21088,0.22959 -2.38197,0.008 -3.51694,-0.66402 -1.13476,-0.67235 -1.83502,-1.68245 -2.09679,-3.03279 -0.0892,-0.46018 -0.14717,-1.16576 -0.17316,-2.11585 -0.026,-0.95042 -0.0832,-1.65545 -0.17223,-2.11598 -0.29052,-1.50224 -0.83412,-3.74066 -1.63133,-6.70492 -0.76735,-2.97342 -1.30012,-5.22307 -1.5981,-6.75911 -0.84941,-4.3785 -2.40456,-10.49787 -4.67546,-18.29391 -2.43614,-8.4622 -4.07039,-14.50617 -4.90519,-18.2484 -1.45319,0.30069 -2.90569,0.60429 -4.35749,0.9108 -7.00897,1.40275 -12.58065,2.07635 -16.78815,1.95879 -2.72161,-0.0841 -4.34811,-1.30912 -4.87176,-3.69218 -0.27516,-1.25221 -0.10059,-2.44322 0.52744,-3.57254 0.72967,-1.27938 1.86256,-2.03751 3.39505,-2.27057 1.1194,-0.17754 3.79382,-0.46134 7.90239,-0.80509 3.30015,-0.30108 5.94325,-0.64387 7.94536,-1.04431 2.03089,-0.40619 4.76931,-0.98116 8.79549,-1.81775 3.90348,-0.84289 6.88342,-1.441 8.80455,-1.79281 2.47967,-0.45409 6.23042,-0.95828 11.17296,-1.46259 5.00582,-0.51306 8.71564,-0.94648 11.23452,-1.35343 1.39692,-0.22569 2.64146,0.0508 3.72963,0.82765 1.08332,0.74601 1.73009,1.79922 1.94361,3.15721 0.20867,1.32715 -0.0834,2.52702 -0.87166,3.60059 -0.79332,1.0429 -1.88048,1.67483 -3.26448,1.89863 z m 67.56421,-8.62653 c -2.42621,0.22565 -6.10794,0.38772 -11.16971,0.53881 -4.89686,0.16754 -8.63961,0.43607 -11.15536,0.75921 -1.15199,0.13364 -2.3037,0.26929 -3.45513,0.40693 0.61354,4.29231 1.87642,11.13482 3.78227,20.68263 1.75752,8.86563 2.91855,15.81582 3.49929,20.76423 0.12751,1.08649 0.42902,2.71542 0.90324,4.89308 0.4738,2.17576 0.77511,3.82448 0.90525,4.94009 0.24601,2.10881 0.11971,3.96326 -0.37359,5.56188 -0.61476,2.14807 -1.81707,3.32847 -3.61308,3.54853 -1.21805,0.14924 -2.36742,-0.14797 -3.45211,-0.89254 -1.08448,-0.74441 -1.71572,-1.79696 -1.88922,-3.16012 -0.0591,-0.46452 -0.0714,-1.17168 -0.0362,-2.12046 0.0353,-0.94914 0.0238,-1.65564 -0.0351,-2.12054 -0.19223,-1.51629 -0.58882,-3.78343 -1.19111,-6.79013 -0.57202,-3.01421 -0.95732,-5.29115 -1.15492,-6.84192 -0.5631,-4.4191 -1.71689,-10.62238 -3.47686,-18.54035 -1.88225,-8.59554 -3.12174,-14.72261 -3.71292,-18.50909 -1.47136,0.20643 -2.94215,0.41609 -4.41238,0.62896 -7.09359,0.95101 -12.70149,1.27281 -16.89929,0.89273 -2.71419,-0.25378 -4.26294,-1.57613 -4.63649,-3.98504 -0.19628,-1.26576 0.0532,-2.44257 0.75244,-3.52966 0.81035,-1.23039 1.99134,-1.91587 3.53871,-2.05255 1.12905,-0.10695 3.82499,-0.22319 7.95367,-0.30665 3.31948,-0.092 5.98381,-0.26564 8.0118,-0.53728 2.07705,-0.27821 4.81205,-0.67108 8.91251,-1.24837 3.95664,-0.58843 6.97859,-0.99114 8.9213,-1.21643 2.50833,-0.29088 6.2942,-0.54848 11.26875,-0.72425 5.04142,-0.18041 8.77606,-0.36392 11.32427,-0.60081 1.41209,-0.13127 2.6376,0.22819 3.67227,1.07611 1.03195,0.81686 1.60619,1.91073 1.72648,3.27916 0.11756,1.33736 -0.2566,2.51392 -1.11765,3.53104 -0.86399,0.98622 -1.9932,1.54288 -3.39108,1.67288 z m 53.73494,53.81986 c -3.40928,1.78685 -8.74643,3.47481 -16.05286,5.20016 -6.73247,1.59923 -12.19288,2.59226 -16.48744,2.9171 -3.06858,0.23211 -5.30742,-0.0681 -6.72731,-0.92166 -1.93242,-1.15366 -3.0576,-3.46956 -3.35839,-6.95284 -0.13787,-5.17435 -0.27044,-10.34898 -0.3977,-15.52389 -0.40387,-14.29738 -1.30839,-30.17506 -2.7645,-47.5161 -0.11233,-1.33775 0.25203,-2.5121 1.09775,-3.52178 0.87851,-1.01221 2.01294,-1.57435 3.39965,-1.68366 1.41974,-0.1119 2.62847,0.26568 3.62202,1.13021 1.02658,0.8621 1.58714,1.96381 1.68567,3.30267 1.29319,17.57226 2.03127,33.64818 2.26982,48.10595 -0.0253,2.3813 -0.049,4.76256 -0.0711,7.14376 -0.052,2.60203 0.0304,4.89833 0.24315,6.88541 8.04836,-0.51719 17.97981,-3.0923 30.18468,-7.53003 0.51973,-0.17731 1.012,-0.27489 1.47635,-0.29288 1.33132,-0.0516 2.46606,0.43888 3.39955,1.46889 0.80662,0.94072 1.2291,2.03624 1.27137,3.28478 0.0676,1.99807 -0.86684,3.49614 -2.7907,4.50391 z m 57.85711,-61.30007 c -0.46126,-0.0148 -0.9694,-0.10887 -1.52494,-0.28202 -5.5244,-1.668 -10.90409,-2.52547 -16.09333,-2.5828 -2.70998,-0.0299 -5.67182,0.18475 -8.87531,0.65175 -2.00543,0.29235 -4.10625,0.6898 -6.29908,1.19434 -1.30834,0.30234 -2.64956,0.64276 -4.02291,1.02165 0.31876,2.02661 0.48335,3.65109 0.49647,4.86892 0.0469,4.35395 -0.16777,10.30299 -0.62403,17.91254 1.4349,-0.15138 2.87063,-0.2992 4.30718,-0.44344 5.58115,-0.55956 11.17369,-1.06237 16.7764,-1.50796 6.16426,-0.53652 10.0781,-0.73986 11.44653,-0.70218 1.41509,0.039 2.59236,0.51274 3.5275,1.41812 0.93518,0.90542 1.37571,2.09342 1.32627,3.5616 -0.0958,2.8442 -1.61623,4.38283 -4.54653,4.64352 -3.79133,0.2211 -7.57875,0.4687 -11.36188,0.74268 -5.71182,0.42865 -11.41352,0.91741 -17.10374,1.46579 -1.62639,0.15652 -3.2518,0.3177 -4.87624,0.48352 -0.0991,2.2195 -0.18273,4.33034 -0.25137,6.33073 -0.0376,1.96883 -0.0449,3.81294 -0.0227,5.53105 0.0894,6.90153 0.6393,10.96264 1.63541,12.16796 0.49651,0.57524 1.72504,0.94928 3.68692,1.13376 0.9973,0.0931 2.18311,0.13704 3.56014,0.13434 1.96531,-0.004 4.69359,-0.0501 8.56287,-0.11102 3.81798,-0.0905 6.7442,-0.10118 8.65824,-0.0632 0.61447,0.0122 1.52057,-0.063 2.72287,-0.22262 1.20201,-0.19075 2.09677,-0.27686 2.67977,-0.2613 3.26068,0.087 4.82961,1.77238 4.72316,5.01866 -0.0861,2.6251 -1.43204,4.15635 -4.02279,4.61494 -2.92555,0.5242 -8.98457,0.63318 -18.52873,0.59285 -3.14006,-0.0133 -5.90076,-0.14911 -8.29325,-0.41988 -4.7786,-0.54461 -8.07415,-1.62392 -9.89736,-3.30014 -2.9726,-2.71906 -4.61624,-9.09847 -4.85699,-19.11528 -0.048,-1.99819 -0.0537,-4.18603 -0.016,-6.56121 0.0378,-2.375 0.1033,-4.93983 0.19766,-7.6911 -0.36609,-0.71007 -0.55956,-1.47093 -0.57907,-2.28285 -0.0255,-1.06175 0.25414,-2.02163 0.84166,-2.8788 0.43227,-9.05868 0.61528,-15.69635 0.52056,-20.0249 -0.0253,-1.15454 -0.22546,-2.83937 -0.60368,-5.04815 -0.37926,-2.242 -0.58374,-3.93794 -0.61032,-5.09447 -0.0854,-3.7139 1.52925,-5.61856 4.86136,-5.68002 1.39751,-0.0258 2.60307,0.40823 3.61218,1.29977 2.06069,-0.5483 4.06406,-1.02167 6.00805,-1.42114 1.80859,-0.36932 3.56589,-0.67458 5.27037,-0.91671 3.57326,-0.5029 6.93653,-0.73329 10.07868,-0.69873 8.12063,0.0893 14.59869,1.18085 19.36187,3.15383 2.20463,0.91952 3.25899,2.46309 3.17733,4.61758 -0.0474,1.24938 -0.52001,2.34162 -1.41325,3.27864 -0.99582,1.02729 -2.19943,1.51678 -3.61595,1.47136 -10e-6,0 -3e-5,0 -5e-5,0 z m 106.37932,78.17902 c -1.61029,-0.28397 -2.78788,-1.3747 -3.54158,-3.27872 -0.64579,-1.63144 -1.03952,-4.23394 -1.1873,-7.80671 -0.10052,-2.74156 -0.20688,-5.48351 -0.3191,-8.22585 -0.44862,-5.25629 -0.63368,-16.23548 -0.82539,-33.65324 -4.66141,8.80333 -9.21408,17.64398 -13.65796,26.51981 -1.33814,2.8057 -2.66615,5.61457 -3.98404,8.42653 -1.59529,3.34058 -3.13223,6.04567 -4.61701,8.1133 -1.59279,2.17948 -3.45016,3.12668 -5.58876,2.84877 -1.77723,-0.23095 -3.05234,-1.39892 -3.83467,-3.51192 -0.50383,-1.38519 -0.90649,-3.11964 -1.209,-5.20286 -0.23182,-1.77566 -0.46667,-3.55131 -0.70454,-5.32695 -1.78116,-11.31895 -3.23871,-23.38864 -4.34008,-36.17339 -0.88311,2.7172 -1.76033,5.43569 -2.63168,8.15545 -2.933,7.98356 -5.80402,15.98191 -8.61303,23.99427 -0.53718,2.87828 -1.72973,7.05685 -3.5558,12.60583 -1.1457,2.33894 -2.7558,3.40868 -4.84095,3.21959 -1.48141,-0.13434 -2.61249,-0.7819 -3.39786,-1.94757 -0.6773,-0.99923 -0.96033,-2.18374 -0.84435,-3.55405 0.4394,-5.19167 2.02983,-11.50779 4.85096,-18.8741 2.27279,-6.12115 4.58589,-12.23303 6.9393,-18.3352 1.3929,-4.81226 2.80249,-9.62129 4.22877,-14.42699 2.109,-6.73325 4.09945,-11.06971 5.93807,-13.01516 1.50847,-1.66497 3.24542,-2.39188 5.19855,-2.17617 2.15229,0.23771 3.62667,1.57215 4.41378,3.99176 0.96308,2.91057 1.68058,8.71126 2.10113,17.38668 0.47245,10.43032 1.72914,21.76434 3.63406,34.10089 6.13472,-11.32463 11.93133,-23.17389 17.31148,-35.54873 0.81605,-2.18584 1.63609,-4.37063 2.46013,-6.55436 0.99084,-2.63326 2.08817,-4.71159 3.29315,-6.23601 1.62634,-2.09194 3.56703,-2.96443 5.80684,-2.60977 2.83158,0.44837 4.57465,3.36449 5.19003,8.72529 0.22885,1.84119 0.25704,5.58923 0.0659,11.2268 -0.45284,14.23325 -0.2,26.54156 0.74526,36.85088 0.28043,2.77904 0.55283,5.55777 0.81718,8.33614 0.38376,4.44393 0.47017,7.17483 0.29129,8.15113 -0.24213,1.32159 -0.93919,2.33719 -2.0857,3.05039 -1.11694,0.71878 -2.2842,0.96989 -3.50707,0.75424 z m 64.13046,11.68061 c -2.69563,-0.72401 -4.09296,-4.89966 -4.27889,-12.56086 -0.0731,-2.93047 0.1791,-7.92848 0.72126,-15.05027 -3.20215,-0.36288 -7.48035,-0.61986 -12.7576,-0.71354 -4.25117,-0.12182 -8.49681,-0.20729 -12.7364,-0.2568 -2.43649,3.71765 -6.23408,8.88994 -11.49089,15.89807 -1.31212,1.51408 -2.782,2.10331 -4.41953,1.77162 -1.19123,-0.2413 -2.1743,-0.89964 -2.95384,-1.97766 -0.74965,-1.07207 -0.99789,-2.26647 -0.73915,-3.58478 0.28012,-1.42719 3.64383,-6.67604 10.2392,-15.38984 -0.35693,-0.90264 -0.43024,-1.87433 -0.21718,-2.91495 0.50727,-2.47752 2.34366,-3.76573 5.52331,-3.83004 4.88886,-5.7817 11.03782,-12.35402 18.47946,-19.5375 10.15994,-9.81565 16.4094,-14.35338 18.28108,-13.88784 2.55177,0.63468 3.86966,2.74538 3.94684,6.31112 -0.29159,5.34214 -0.60344,10.68115 -0.93557,16.01689 -0.39403,11.11288 -0.88761,22.21115 -1.48095,33.29348 0.21176,2.61292 0.41468,5.22506 0.60873,7.83639 0.19224,2.67337 0.16907,4.42162 -0.0543,5.23244 -0.3567,1.2949 -1.11105,2.25303 -2.25877,2.87839 -1.14774,0.62537 -2.30491,0.78043 -3.47682,0.46568 z M 609.1956,674.9506 c -6.23652,5.88317 -12.35955,11.83672 -18.36866,17.85727 3.9088,-0.0958 9.92688,0.072 17.80902,0.63852 0.21653,-6.16105 0.40306,-12.32639 0.55964,-18.49579 z m 96.22424,18.45652 c -5.93077,3.13863 -10.56838,5.90222 -13.88223,8.16422 -2.89929,1.99781 -5.77958,4.01101 -8.64083,6.03934 -3.30657,2.26816 -6.27504,4.1179 -8.928,5.54344 1.6484,5.90078 3.22221,11.802 4.721,17.70232 1.79594,7.01737 3.42719,12.81465 4.99385,17.47096 0.40283,1.2577 0.39994,2.41189 -0.003,3.46224 -0.46974,1.22561 -1.31748,2.12155 -2.53821,2.69232 -1.19275,0.58168 -2.37942,0.64893 -3.56592,0.20239 -1.07356,-0.40404 -1.90745,-1.23236 -2.50687,-2.48796 -1.33915,-2.83038 -2.51439,-6.42007 -3.55273,-10.77843 -0.8431,-3.72317 -1.71523,-7.44714 -2.61631,-11.1716 -1.14009,-4.12254 -2.3175,-8.24492 -3.53207,-12.36666 -7.1241,4.15097 -14.13839,8.40087 -21.04199,12.74542 -3.66036,2.22127 -7.29025,4.46925 -10.88952,6.74332 -1.25545,0.69771 -2.45991,0.87457 -3.61971,0.53021 -1.18878,-0.35296 -2.09625,-1.12413 -2.72687,-2.31704 -0.6305,-1.19267 -0.76642,-2.41874 -0.40116,-3.67883 0.31303,-1.07993 0.98911,-1.99006 2.03247,-2.72702 3.5216,-2.24292 7.07253,-4.4611 10.65268,-6.65397 7.53243,-4.81128 15.19737,-9.51093 22.9937,-14.09342 -1.88632,-5.45735 -4.04811,-10.99731 -6.49922,-16.6105 -1.05988,-2.90211 -2.13884,-5.80299 -3.23683,-8.70245 -1.33171,-3.47664 -2.73577,-6.24778 -4.18891,-8.30751 -1.01733,-1.44201 -1.32864,-2.85098 -0.92345,-4.22979 0.36105,-1.22862 1.14392,-2.18731 2.35351,-2.872 1.20937,-0.68457 2.50386,-0.82117 3.87772,-0.40807 2.71544,0.8165 5.37177,4.58192 7.82527,11.28487 0.72595,2.25173 1.85328,5.39487 3.39462,9.59664 2.2324,5.18984 4.22303,10.34635 5.98121,15.46302 5.0666,-3.52519 10.19309,-7.0025 15.37924,-10.43044 10.09271,-6.65686 16.34227,-9.46197 18.40605,-8.68549 1.28218,0.48241 2.23555,1.36239 2.85576,2.63581 0.62033,1.27368 0.69162,2.52327 0.22075,3.7483 -0.39248,1.02108 -1.192,1.85171 -2.39437,2.49636 z"
     id="text2"
     style="font-size:96px;font-family:'Comic Sans MS';-inkscape-font-specification:'Comic Sans MS';fill:#00ff00;stroke:#000000;stroke-width:1.562"
     aria-label="LITTLE MAX"
     inkscape:path-effect="#path-effect2"
     inkscape:original-d="m 146.57031,753.375 q -5.29687,2.48437 -16.64062,4.45312 -10.45313,1.82813 -17.0625,1.82813 -4.73438,0 -6.79688,-1.45313 -2.8125,-1.96875 -2.8125,-7.21875 l 0.9375,-15.51562 q 1.21875,-21.46875 1.21875,-47.625 0,-2.01563 1.3125,-3.42188 1.35938,-1.40625 3.32813,-1.40625 2.01562,0 3.32812,1.40625 1.35938,1.40625 1.35938,3.42188 0,26.48437 -1.26563,48.1875 l -0.60937,7.125 q -0.375,3.89062 -0.28125,6.89062 12.23437,0.14063 30.9375,-5.76562 0.79687,-0.23438 1.5,-0.23438 2.01562,0 3.375,1.59375 1.17187,1.45313 1.17187,3.32813 0,3 -3,4.40625 z m 49.6875,-56.48438 q -3,0 -7.54687,-0.60937 l -7.54688,-0.98438 q -1.07812,13.64063 -1.07812,26.0625 0,3.28125 0.1875,8.10938 0.1875,4.82812 0.1875,8.10937 0,4.40625 -0.32813,8.01563 l 14.76563,-0.1875 q 1.96875,0 3.28125,1.40625 1.35937,1.35937 1.35937,3.375 0,2.0625 -1.35937,3.46875 -1.3125,1.35937 -3.28125,1.35937 -2.625,0 -7.875,0.14063 -5.25,0.0937 -7.875,0.0937 -3.09375,0 -9.28125,0.84375 -6.14063,0.89062 -9.28125,0.89062 -1.96875,0 -3.32813,-1.40625 -1.3125,-1.35937 -1.3125,-3.375 0,-2.01562 1.3125,-3.42187 1.35938,-1.40625 3.32813,-1.40625 3.04687,0 10.07812,-0.98438 0.46875,-3.79687 0.46875,-8.67187 0,-3.23438 -0.32812,-7.875 -0.28125,-4.6875 -0.28125,-7.875 0,-10.82813 1.3125,-27.04688 l -6.09375,0.1875 -6.09375,0.14063 q -2.01563,0 -3.375,-1.35938 -1.35938,-1.35937 -1.35938,-3.46875 0,-4.35937 4.40625,-4.78125 3.79688,-0.375 14.20313,-0.375 9.32812,0 23.39062,2.01563 4.17188,0.60937 4.17188,5.01562 0,2.20313 -1.59375,3.51563 -1.40625,1.07812 -3.23438,1.07812 z m 71.4375,-0.79687 q -3.46875,0 -10.6875,-0.5625 -7.03125,-0.51563 -10.6875,-0.46875 h -3.32812 q 0.14062,6.46875 1.26562,21 1.03125,13.54687 1.03125,21.04687 0,1.64063 0.32813,4.96875 0.32812,3.32813 0.32812,5.01563 0,3.1875 -1.03125,5.48437 -1.3125,3.09375 -4.07812,3.09375 -1.875,0 -3.375,-1.3125 -1.5,-1.3125 -1.5,-3.375 0,-0.70312 0.23437,-2.10937 0.23438,-1.40625 0.23438,-2.10938 0,-2.29687 -0.32813,-6.89062 -0.28125,-4.59375 -0.28125,-6.9375 0,-6.70313 -1.07812,-18.84375 -1.125,-13.125 -1.26563,-18.84375 l -4.26562,0.0469 q -10.26563,0 -16.125,-1.5 -3.79688,-0.98437 -3.79688,-4.64062 0,-1.92188 1.21875,-3.375 1.40625,-1.64063 3.60938,-1.5 1.64062,0.0937 7.5,0.84375 4.6875,0.5625 7.59375,0.5625 2.8125,0 8.53125,-0.0937 5.71875,-0.14063 8.53125,-0.14063 3.60937,0 10.6875,0.51563 7.125,0.51562 10.73437,0.51562 2.01563,0 3.375,1.40625 1.35938,1.35938 1.35938,3.42188 0,2.01562 -1.35938,3.42187 -1.35937,1.35938 -3.375,1.35938 z m 65.25,0 q -3.46875,0 -10.6875,-0.5625 -7.03125,-0.51563 -10.6875,-0.46875 h -3.32812 q 0.14062,6.46875 1.26562,21 1.03125,13.54687 1.03125,21.04687 0,1.64063 0.32813,4.96875 0.32812,3.32813 0.32812,5.01563 0,3.1875 -1.03125,5.48437 -1.3125,3.09375 -4.07812,3.09375 -1.875,0 -3.375,-1.3125 -1.5,-1.3125 -1.5,-3.375 0,-0.70312 0.23437,-2.10937 0.23438,-1.40625 0.23438,-2.10938 0,-2.29687 -0.32813,-6.89062 -0.28125,-4.59375 -0.28125,-6.9375 0,-6.70313 -1.07812,-18.84375 -1.125,-13.125 -1.26563,-18.84375 l -4.26562,0.0469 q -10.26563,0 -16.125,-1.5 -3.79688,-0.98437 -3.79688,-4.64062 0,-1.92188 1.21875,-3.375 1.40625,-1.64063 3.60938,-1.5 1.64062,0.0937 7.5,0.84375 4.6875,0.5625 7.59375,0.5625 2.8125,0 8.53125,-0.0937 5.71875,-0.14063 8.53125,-0.14063 3.60937,0 10.6875,0.51563 7.125,0.51562 10.73437,0.51562 2.01563,0 3.375,1.40625 1.35938,1.35938 1.35938,3.42188 0,2.01562 -1.35938,3.42187 -1.35937,1.35938 -3.375,1.35938 z m 49.45313,57.28125 q -5.29688,2.48437 -16.64063,4.45312 -10.45312,1.82813 -17.0625,1.82813 -4.73437,0 -6.79687,-1.45313 -2.8125,-1.96875 -2.8125,-7.21875 l 0.9375,-15.51562 q 1.21875,-21.46875 1.21875,-47.625 0,-2.01563 1.3125,-3.42188 1.35937,-1.40625 3.32812,-1.40625 2.01563,0 3.32813,1.40625 1.35937,1.40625 1.35937,3.42188 0,26.48437 -1.26562,48.1875 l -0.60938,7.125 q -0.375,3.89062 -0.28125,6.89062 12.23438,0.14063 30.9375,-5.76562 0.79688,-0.23438 1.5,-0.23438 2.01563,0 3.375,1.59375 1.17188,1.45313 1.17188,3.32813 0,3 -3,4.40625 z m 57.09375,-61.17188 q -0.65625,0 -1.45313,-0.23437 -7.92187,-2.25 -15.28125,-2.25 -3.84375,0 -8.39062,0.70312 -4.54688,0.70313 -9.79688,2.15625 0.42188,3.04688 0.42188,4.875 0,6.51563 -0.79688,17.90625 l 20.53125,-1.96875 q 9.04688,-0.9375 11.10938,-0.9375 2.0625,0 3.46875,1.3125 1.40625,1.3125 1.40625,3.51563 0,4.26562 -4.3125,4.78125 l -11.15625,0.98437 -21.65625,1.96875 q -0.1875,3.32813 -0.32813,6.32813 -0.0937,2.95312 -0.0937,5.53125 0,10.35937 1.5,12.1875 1.125,1.3125 7.35938,1.3125 2.90625,0 8.71875,-0.14063 5.85937,-0.1875 8.8125,-0.1875 0.9375,0 2.76562,-0.28125 1.82813,-0.32812 2.71875,-0.32812 4.96875,0 4.96875,4.875 0,3.9375 -3.98437,4.73437 -4.40625,0.89063 -19.07813,0.89063 -14.53125,0 -18.65625,-3.84375 -4.5,-4.17188 -4.5,-19.21875 0,-3 0.14063,-6.5625 0.14062,-3.5625 0.375,-7.6875 -0.51563,-1.07813 -0.51563,-2.29688 0,-1.59375 0.89063,-2.85937 0.9375,-13.54688 0.9375,-20.01563 0,-1.73437 -0.46875,-5.0625 -0.46875,-3.375 -0.46875,-5.10937 0,-5.57813 4.6875,-5.57813 1.96875,0 3.375,1.35938 5.625,-1.5 10.59375,-2.25 5.01562,-0.75 9.42187,-0.75 11.39063,0 18.1875,2.71875 3.14063,1.26562 3.14063,4.5 0,1.875 -1.21875,3.32812 -1.35938,1.59375 -3.375,1.59375 z m 112.54687,66.98438 q -2.53125,0 -4.17187,-2.625 -1.40625,-2.25 -2.53125,-7.5 L 543.64844,741 q -1.92188,-7.5 -6.09375,-33.09375 l -9.375,28.26562 -2.76563,8.90625 q -1.6875,5.29688 -3.51562,8.67188 -1.96875,3.5625 -5.29688,3.5625 -2.76562,0 -4.35937,-3 -1.03125,-1.96875 -1.875,-5.01563 l -1.35938,-5.20312 q -4.73437,-16.54688 -8.34375,-35.4375 l -1.6875,8.39062 -6.04687,24.75 q -0.375,4.35938 -2.34375,12.89063 -1.40625,3.65625 -4.64063,3.65625 -2.29687,0 -3.65625,-1.64063 -1.17187,-1.40625 -1.17187,-3.46875 0,-7.82812 3.23437,-19.21875 l 5.15625,-18.89062 2.71875,-14.76563 q 2.0625,-10.35937 4.35938,-13.54687 1.875,-2.71875 4.64062,-2.71875 3.04688,0 4.54688,3.46875 1.82812,4.17187 3.9375,17.01562 2.48437,15.42188 7.73437,33.375 6.9375,-18.04687 12,-37.59375 l 1.40625,-6.84375 q 0.84375,-4.125 2.20313,-6.65625 1.82812,-3.46875 5.01562,-3.46875 4.03125,0 6.14063,7.78125 0.75,2.67188 1.82812,11.0625 2.76563,21.1875 6.89063,36.1875 l 2.29687,8.0625 q 1.78125,6.46875 1.78125,7.96875 0,2.01563 -1.54687,3.375 -1.5,1.35938 -3.42188,1.35938 z m 67.17188,-2.48438 q -4.3125,0 -7.5,-11.0625 -1.21875,-4.21875 -3.04688,-14.76562 -4.78125,0.65625 -12.51562,2.34375 l -12.46875,2.57812 q -2.34375,6.14063 -8.01563,17.95313 -1.5,2.625 -4.07812,2.625 -1.875,0 -3.375,-1.35938 -1.45313,-1.35937 -1.45313,-3.375 0,-2.25 7.07813,-17.10937 -0.79688,-1.21875 -0.79688,-2.8125 0,-3.79688 4.59375,-4.875 5.34375,-10.03125 13.5,-23.0625 11.10938,-17.76563 13.82813,-17.76563 3.70312,0 5.0625,5.15625 l 2.95312,15.75 6.98438,32.57813 2.67187,7.40625 q 1.35938,3.79687 1.35938,5.0625 0,2.01562 -1.45313,3.375 -1.45312,1.35937 -3.32812,1.35937 z M 602.66406,703.125 589.25781,724.73437 q 5.67188,-1.45312 17.20313,-3.51562 z m 92.8125,-11.0625 q -6.28125,7.59375 -9.65625,12.51562 l -5.85937,8.625 q -3.42188,4.875 -6.42188,8.20313 L 683.85156,736.5 q 6.14063,8.95312 10.92188,14.625 1.26562,1.54687 1.26562,3.23437 0,1.96875 -1.45312,3.42188 -1.40625,1.45312 -3.375,1.45312 -1.78125,0 -3.32813,-1.45312 -3.46875,-3.28125 -7.21875,-8.90625 l -6.28125,-9.65625 -7.35937,-10.54688 -16.125,18.65625 -8.625,9.65625 q -1.54688,1.54688 -3.42188,1.54688 -1.92187,0 -3.375,-1.45313 -1.45312,-1.45312 -1.45312,-3.42187 0,-1.6875 1.21875,-3.1875 l 8.4375,-9.42188 17.57812,-20.39062 q -5.15625,-6.89063 -10.96875,-13.82813 l -5.4375,-7.35937 q -3.28125,-4.40625 -6.09375,-6.75 -1.96875,-1.64063 -1.96875,-3.79688 0,-1.92187 1.35938,-3.42187 1.35937,-1.5 3.375,-1.5 3.98437,0 10.17187,8.48437 1.92188,2.85938 5.85938,8.10938 5.34375,6.375 10.17187,12.79687 l 10.6875,-14.90625 Q 688.82031,684 691.91406,684 q 1.92188,0 3.375,1.45312 1.45313,1.45313 1.45313,3.42188 0,1.64062 -1.26563,3.1875 z" />
</svg>
