<?xml version="1.0" encoding="UTF-8" standalone="no"?>
<svg
   viewBox="0 0 800 800"
   version="1.1"
   id="svg2"
   sodipodi:docname="maexle.svg"
   width="800"
   height="800"
   inkscape:version="1.4 (86a8ad7, 2024-10-11)"
   xmlns:inkscape="http://www.inkscape.org/namespaces/inkscape"
   xmlns:sodipodi="http://sodipodi.sourceforge.net/DTD/sodipodi-0.dtd"
   xmlns="http://www.w3.org/2000/svg"
   xmlns:svg="http://www.w3.org/2000/svg">
  <defs
     id="defs2">
    <inkscape:path-effect
       effect="fillet_chamfer"
       id="path-effect1"
       is_visible="true"
       lpeversion="1"
       nodesatellites_param="F,0,0,1,0,200,0,1 @ F,0,0,1,0,200,0,1 @ F,0,0,1,0,200,0,1 @ F,0,0,1,0,200,0,1"
       radius="200"
       unit="px"
       method="auto"
       mode="F"
       chamfer_steps="1"
       flexible="false"
       use_knot_distance="true"
       apply_no_radius="true"
       apply_with_radius="true"
       only_selected="false"
       hide_knots="false" />
    <inkscape:path-effect
       effect="bend_path"
       id="path-effect3"
       is_visible="true"
       lpeversion="1"
       bendpath="m 235.53906,720 c 119.15807,-47.58714 228.71714,-47.17927 328.92193,0"
       prop_scale="1"
       scale_y_rel="false"
       vertical="false"
       hide_knot="false"
       bendpath-nodetypes="cc" />
    <inkscape:path-effect
       effect="bend_path"
       id="path-effect2"
       is_visible="true"
       lpeversion="1"
       bendpath="m 103.25781,720 c 209.21213,-66.0272 407.95662,-71.34212 593.48438,0"
       prop_scale="1"
       scale_y_rel="false"
       vertical="false"
       hide_knot="false"
       bendpath-nodetypes="cc" />
  </defs>
  <sodipodi:namedview
     id="namedview2"
     pagecolor="#ffffff"
     bordercolor="#999999"
     borderopacity="1"
     inkscape:showpageshadow="2"
     inkscape:pageopacity="0"
     inkscape:pagecheckerboard="0"
     inkscape:deskcolor="#d1d1d1"
     showgrid="false"
     inkscape:zoom="0.56278518"
     inkscape:cx="112.83168"
     inkscape:cy="429.11578"
     inkscape:window-width="2560"
     inkscape:window-height="1377"
     inkscape:window-x="1912"
     inkscape:window-y="-8"
     inkscape:window-maximized="1"
     inkscape:current-layer="svg2" />
  <path
     d="M 200,0 H 600 A 200,200 45 0 1 800,200 V 600 A 200,200 135 0 1 600,800 H 200 A 200,200 45 0 1 0,600 V 200 A 200,200 135 0 1 200,0 Z"
     fill="#000000"
     fill-opacity="1"
     id="path1"
     style="stroke-width:1.5625"
     inkscape:path-effect="#path-effect1"
     inkscape:original-d="M 0,0 H 800 V 800 H 0 Z" />
  <g
     class=""
     id="g2"
     transform="matrix(1.553197,0,0,1.6314803,2.3815687,-17.659778)">
    <path
       d="m 138.798,35.342 -110.068,78.926 95.777,29.095 111.305,-87.09 -97.014,-20.93 z m 112.986,31.082 -118.047,89.96 51.07,131.102 8.534,-7.455 4.23,-15.708 a 18.338,13.102 76.863 0 1 -9.08,-20.45 18.338,13.102 76.863 0 1 10.997,-13.727 18.338,13.102 76.863 0 1 3.62,0.53 18.338,13.102 76.863 0 1 3.113,1.544 l 7.94,-29.48 a 9,9 0 0 1 0.353,-1.04 9,9 0 0 1 0.058,-0.128 9,9 0 0 1 0.32,-0.685 9,9 0 0 1 0.09,-0.153 9,9 0 0 1 0.37,-0.625 9,9 0 0 1 0.534,-0.723 9,9 0 0 1 0.066,-0.074 9,9 0 0 1 0.54,-0.594 9,9 0 0 1 0.65,-0.593 9,9 0 0 1 0.004,-0.002 9,9 0 0 1 0.46,-0.342 9,9 0 0 1 0.266,-0.197 9,9 0 0 1 0.502,-0.3 9,9 0 0 1 0.27,-0.157 9,9 0 0 1 0.44,-0.208 9,9 0 0 1 0.38,-0.178 9,9 0 0 1 0.437,-0.152 9,9 0 0 1 0.41,-0.143 9,9 0 0 1 0.404,-0.1 9,9 0 0 1 0.47,-0.114 9,9 0 0 1 0.51,-0.07 9,9 0 0 1 0.37,-0.05 9,9 0 0 1 0.01,0 9,9 0 0 1 0.01,-0.003 l 33.624,-2.873 a 18.338,13.102 76.863 0 1 10.326,-9.777 18.338,13.102 76.863 0 1 3.622,0.53 18.338,13.102 76.863 0 1 8.527,7.327 L 291.227,190.203 251.785,66.42 Z M 137.25,74.03 a 9.8,19.77 77.916 0 1 12.798,8.734 9.8,19.77 77.916 0 1 -21.938,11.998 9.8,19.77 77.916 0 1 -16.57,-8.602 9.8,19.77 77.916 0 1 21.938,-12 9.8,19.77 77.916 0 1 3.77,-0.13 z m 100.228,23.517 a 18.338,13.102 76.863 0 1 0.002,0 18.338,13.102 76.863 0 1 3.62,0.53 18.338,13.102 76.863 0 1 12.112,21.94 18.338,13.102 76.863 0 1 -14.617,13.196 18.338,13.102 76.863 0 1 -12.114,-21.94 18.338,13.102 76.863 0 1 10.998,-13.726 z M 24.22,131.71 71.212,245.834 165.448,286.214 119.46,160.644 24.22,131.709 Z m 147.886,17.43 a 18.338,13.102 76.863 0 1 3.622,0.528 18.338,13.102 76.863 0 1 12.11,21.94 18.338,13.102 76.863 0 1 -14.616,13.197 18.338,13.102 76.863 0 1 -12.112,-21.94 18.338,13.102 76.863 0 1 10.996,-13.726 z m -75.123,13.016 a 19.454,9.134 59.254 0 1 16.955,15.078 19.454,9.134 59.254 0 1 -0.425,19.485 19.454,9.134 59.254 0 1 -17.913,-14.939 19.454,9.134 59.254 0 1 0.424,-19.48 19.454,9.134 59.254 0 1 0.96,-0.144 z m 263.393,40.21 -112.102,9.577 113.762,79.926 113.598,-16.956 -115.258,-72.55 z M 70.82,212.022 a 19.454,9.134 59.254 0 1 16.957,15.078 19.454,9.134 59.254 0 1 -0.425,19.484 19.454,9.134 59.254 0 1 -17.913,-14.938 19.454,9.134 59.254 0 1 0.425,-19.482 19.454,9.134 59.254 0 1 0.96,-0.14 z m 157.378,7.813 -41.538,154.188 115.616,99.454 47.147,-168.47 -121.225,-85.17 z m 126.987,11.168 a 21.76,8.898 15.267 0 1 19.693,4.783 21.76,8.898 15.267 0 1 7.607,14.244 21.76,8.898 15.267 0 1 -28.886,-3.182 21.76,8.898 15.267 0 1 -7.61,-14.244 21.76,8.898 15.267 0 1 9.195,-1.6 z M 487.78,291.3 366.9,309.343 320.077,476.659 436.374,444.889 Z m -181.808,10.8 a 25.834,15.573 84.277 0 1 4.238,0.943 25.834,15.573 84.277 0 1 12.873,31.72 25.834,15.573 84.277 0 1 -18.105,17.893 25.834,15.573 84.277 0 1 -12.874,-31.72 25.834,15.573 84.277 0 1 13.868,-18.836 z m 154.086,11.636 a 13.237,21.96 28.62 0 1 7.673,4.13 13.237,21.96 28.62 0 1 -6.176,28.435 13.237,21.96 28.62 0 1 -21.287,3.878 13.237,21.96 28.62 0 1 6.175,-28.434 13.237,21.96 28.62 0 1 13.616,-8.008 z M 391.362,324.4 a 13.237,21.96 28.62 0 1 7.672,4.13 13.237,21.96 28.62 0 1 -6.176,28.435 13.237,21.96 28.62 0 1 -21.287,3.877 13.237,21.96 28.62 0 1 6.177,-28.434 13.237,21.96 28.62 0 1 13.615,-8.008 z m -173.996,13.305 a 25.834,15.573 84.277 0 1 4.24,0.945 25.834,15.573 84.277 0 1 12.872,31.72 25.834,15.573 84.277 0 1 -18.106,17.894 25.834,15.573 84.277 0 1 -12.873,-31.72 25.834,15.573 84.277 0 1 13.866,-18.84 z m 212.278,60.87 a 13.237,21.96 28.62 0 1 7.67,4.13 13.237,21.96 28.62 0 1 -6.174,28.434 13.237,21.96 28.62 0 1 -21.287,3.876 13.237,21.96 28.62 0 1 6.175,-28.434 13.237,21.96 28.62 0 1 13.616,-8.008 z m -70.332,19.488 a 13.237,21.96 28.62 0 1 7.67,4.132 13.237,21.96 28.62 0 1 -6.174,28.434 13.237,21.96 28.62 0 1 -21.287,3.874 13.237,21.96 28.62 0 1 6.176,-28.434 13.237,21.96 28.62 0 1 13.616,-8.007 z"
       fill="#ffffff"
       fill-opacity="1"
       id="path2" />
  </g>
  <path
     d="m 315.69548,740.64091 c -1.53252,0.38383 -3.00845,-0.14072 -4.44439,-1.57774 -1.23006,-1.23099 -2.63478,-3.45062 -4.22242,-6.65358 -1.20692,-2.46323 -2.4229,-4.92328 -3.64786,-7.38012 -2.60115,-4.6931 -7.19103,-14.47464 -14.69419,-30.32422 -0.59792,9.96476 -1.01286,19.91342 -1.25276,29.84047 -0.0161,3.11 -0.016,6.21783 1e-4,9.32333 -0.007,3.70165 -0.22303,6.80126 -0.65767,9.30015 -0.48265,2.64595 -1.7153,4.28501 -3.71789,4.93733 -1.66431,0.54213 -3.28842,0.027 -4.88892,-1.5498 -1.04115,-1.03742 -2.14529,-2.4328 -3.31335,-4.18473 -0.97261,-1.50449 -1.94931,-3.00698 -2.93007,-4.50746 -6.48618,-9.44949 -13.07434,-19.68868 -19.69593,-30.69723 0.39521,2.83372 0.7989,5.66518 1.21098,8.49433 0.87134,8.47011 1.83214,16.91773 2.87945,25.34096 0.79637,2.82346 1.58264,7.08853 2.42952,12.86779 0.0254,2.59801 -0.91614,4.25691 -2.8328,4.99638 -1.36197,0.52547 -2.6445,0.43969 -3.85556,-0.25986 -1.04164,-0.59783 -1.82033,-1.53328 -2.33047,-2.81002 -1.93134,-4.83361 -3.35639,-11.18951 -4.13203,-19.02946 -0.70848,-6.48621 -1.36192,-12.9887 -1.95872,-19.5064 -0.88721,-4.93357 -1.75151,-9.87442 -2.59252,-14.82232 -1.07802,-6.98238 -1.18426,-11.76693 -0.36359,-14.33862 0.64269,-2.1713 1.91444,-3.60369 3.80327,-4.28256 2.08168,-0.74819 4.02521,-0.20324 5.80952,1.62576 2.16067,2.19223 5.36145,7.10098 9.52326,14.7392 4.98147,9.21265 11.02219,18.86838 18.02216,29.23223 0.62687,-12.84912 0.83837,-26.08866 0.53893,-39.59563 -0.17658,-2.33115 -0.34678,-4.6634 -0.51056,-6.99674 -0.20013,-2.81267 -0.0628,-5.16703 0.41312,-7.06497 0.6277,-2.59242 2.07163,-4.21195 4.3161,-4.83708 2.83686,-0.79011 5.69426,1.13395 8.49702,5.76317 0.97815,1.58135 2.56269,4.98892 4.71443,10.20964 5.4578,13.16312 10.72461,24.322 15.72381,33.36961 1.37193,2.43092 2.73132,4.86653 4.07799,7.30678 2.11666,3.91422 3.27823,6.39491 3.50613,7.35634 0.3101,1.30814 0.0963,2.51571 -0.63215,3.62561 -0.69997,1.10301 -1.628,1.79795 -2.79194,2.08946 z m 61.03571,-12.94972 c -2.64091,0.2292 -5.26805,-3.20845 -8.05568,-10.31614 -1.07124,-2.72602 -2.55379,-7.4748 -4.54921,-14.32916 -3.06793,0.78739 -7.09557,2.07231 -11.94679,3.91008 -3.92761,1.43841 -7.8248,2.93513 -11.6917,4.48716 -0.82974,4.42899 -2.29235,10.50582 -4.31942,19.05204 -0.59105,1.89854 -1.6675,3.00377 -3.2437,3.32802 -1.14687,0.23592 -2.2697,0.009 -3.37723,-0.68082 -1.07838,-0.69608 -1.76325,-1.69827 -2.04533,-3.01218 -0.29828,-1.38941 0.62537,-7.59707 3.24222,-18.1462 -0.67118,-0.69432 -1.11324,-1.56141 -1.3216,-2.60293 -0.49586,-2.47853 0.67742,-4.38109 3.56405,-5.66151 2.25292,-7.19492 5.44138,-15.64841 9.74719,-25.07221 5.88587,-12.89621 10.3095,-19.38281 12.28695,-19.62488 2.69809,-0.3303 4.73862,1.17203 6.09385,4.47426 1.63862,5.09275 3.23959,10.19334 4.80242,15.30153 3.53711,10.53476 6.888,21.10937 10.04704,31.72134 1.06585,2.38298 2.11505,4.77043 3.1474,7.16227 1.05014,2.44868 1.59643,4.10751 1.65881,4.94281 0.0999,1.33784 -0.26628,2.49032 -1.08856,3.46186 -0.82233,0.97159 -1.80269,1.50503 -2.95071,1.60466 z m -22.03391,-51.41092 c -3.76736,7.73532 -7.29005,15.519 -10.57977,23.34109 3.53443,-1.53478 9.20209,-3.63011 16.70295,-5.8959 -1.98597,-5.82741 -4.02733,-11.64261 -6.12318,-17.44519 z m -14.52959,-31.48582 c 4.61119,-0.6902 7.13137,0.64859 7.57218,3.88678 0.12627,0.92763 -0.51864,1.92604 -1.91939,3.00465 -1.27544,0.96654 -2.51058,1.53978 -3.71694,1.71905 -4.22773,0.62824 -6.60737,-0.59216 -7.12824,-3.77268 -0.14632,-0.89345 0.35171,-1.87696 1.5066,-2.94434 1.18984,-1.07292 2.42218,-1.70432 3.68579,-1.89346 z m 28.53881,-3.77473 c 1.21016,-0.10677 2.48297,0.2868 3.80585,1.18227 1.32041,0.86436 2.01046,1.76746 2.08095,2.70077 0.21694,2.87226 -2.19175,4.46399 -7.16855,4.92558 -1.43003,0.13263 -2.73262,-0.0688 -3.91579,-0.60756 -1.33159,-0.61747 -2.06616,-1.52695 -2.19412,-2.73727 -0.22631,-2.14045 0.41935,-3.6061 1.95486,-4.38769 0.84604,-0.45952 2.6634,-0.83141 5.4368,-1.0761 z m 85.56019,23.74051 c -5.1437,4.43666 -9.03535,8.28091 -11.70089,11.2923 -2.33464,2.66122 -4.62382,5.344 -6.86691,8.04733 -2.61328,3.05219 -4.97402,5.62308 -7.13138,7.71435 3.15872,5.234 6.16737,10.50932 9.02654,15.81967 3.42991,6.34342 6.24456,11.48068 8.74706,15.63283 0.65221,1.11835 0.90233,2.23682 0.76197,3.3523 -0.1638,1.30174 -0.74738,2.37679 -1.73842,3.23123 -0.96328,0.85826 -2.02946,1.21936 -3.20958,1.08708 -1.06787,-0.11971 -2.01256,-0.70737 -2.84608,-1.76628 -1.86863,-2.39097 -3.78266,-5.54706 -5.80269,-9.47496 -1.68474,-3.36619 -3.42746,-6.71971 -5.22831,-10.05907 -2.12633,-3.65755 -4.32713,-7.29531 -6.6026,-10.91102 -5.10287,5.46446 -9.97127,11.04284 -14.59672,16.72302 -0.44024,0.53644 -0.87844,1.07368 -1.31462,1.61172 -2.69518,3.2167 -5.31546,6.46398 -7.86291,9.73979 -0.91703,1.0519 -1.93913,1.59472 -3.07883,1.63208 -1.16813,0.0383 -2.2124,-0.40529 -3.14309,-1.3343 -0.93035,-0.92866 -1.43335,-2.04484 -1.49674,-3.35418 -0.0543,-1.12202 0.2704,-2.20003 0.98405,-3.23081 2.4844,-3.24734 5.0379,-6.46836 7.66241,-9.66112 2.67683,-3.38414 5.43058,-6.73897 8.26337,-10.06238 2.94118,-3.46443 5.97208,-6.88972 9.09081,-10.27315 -2.77339,-3.86706 -5.79261,-7.719 -9.07053,-11.53666 -0.69119,-0.80506 -1.39364,-1.60856 -2.10743,-2.41036 -1.91773,-2.44244 -3.87121,-4.86934 -5.85961,-7.28047 -2.39852,-2.88587 -4.66878,-5.06832 -6.76193,-6.55176 -1.46561,-1.0387 -2.23661,-2.26939 -2.29555,-3.70446 -0.0525,-1.27838 0.39786,-2.43861 1.36323,-3.47602 0.96507,-1.03707 2.19925,-1.58188 3.69312,-1.62707 2.95237,-0.0893 6.82298,2.64878 11.32975,8.29189 0.20286,0.27563 0.42053,0.56786 0.6532,0.87726 1.42505,1.894 3.22172,4.18496 5.62688,7.28052 3.74569,4.31073 7.17618,8.69087 10.30683,13.11608 3.9039,-4.79574 7.95615,-9.5279 12.15315,-14.19082 8.1716,-9.06074 13.81046,-13.27335 16.09776,-13.01241 1.42116,0.16214 2.61206,0.79299 3.56222,1.88612 0.9505,1.09354 1.33577,2.29322 1.16945,3.59432 -0.13866,1.08478 -0.73442,2.07823 -1.77698,2.98741 z m 40.26004,70.37885 c -3.61603,0.73054 -8.85516,0.8317 -15.89285,0.57525 -6.4866,-0.2272 -11.59554,-0.59508 -15.54888,-1.30364 -2.81268,-0.50412 -4.75512,-1.30897 -5.83681,-2.46239 -1.47263,-1.56044 -1.96892,-4.07029 -1.44525,-7.52769 1.06121,-5.06794 2.13574,-10.1335 3.22356,-15.19663 2.94963,-13.96947 5.87677,-29.67483 8.58272,-46.84284 0.20912,-1.32675 0.8646,-2.37837 1.97693,-3.14863 1.14617,-0.76435 2.44826,-1.02546 3.89519,-0.77844 1.48141,0.2529 2.62264,0.93149 3.41556,2.02655 0.8276,1.10179 1.11342,2.31457 0.86996,3.63548 -3.18968,17.30654 -6.57441,33.11568 -9.93992,47.15207 -0.61619,2.30124 -1.22846,4.60335 -1.8368,6.90631 -0.69032,2.50883 -1.17825,4.75742 -1.47127,6.73433 7.53469,1.43989 17.13974,1.44954 29.64443,0.70713 0.52736,-0.0204 1.00625,0.0283 1.43571,0.1453 1.23158,0.33561 2.11971,1.1354 2.65546,2.39059 0.44755,1.13296 0.49463,2.30076 0.1512,3.50249 -0.5497,1.92351 -1.8503,3.07541 -3.87894,3.48476 z m 74.87462,-37.67131 c -0.4351,-0.19801 -0.88471,-0.4875 -1.35014,-0.86842 -4.64943,-3.73869 -9.52797,-6.61849 -14.53443,-8.62367 -2.61401,-1.04696 -5.5676,-1.94545 -8.84636,-2.67127 -3.27833,-0.72571 -6.89163,-1.26505 -10.81763,-1.58986 -0.3696,2.01908 -0.75748,3.60758 -1.15437,4.75815 -1.42477,4.13035 -3.62665,9.63008 -6.61409,16.66024 6.87251,1.66025 13.71595,3.52021 20.51851,5.5793 5.92899,1.74678 9.73206,3.09329 10.95299,3.63412 1.30357,0.57743 2.21819,1.46983 2.73783,2.667 0.51969,1.1973 0.46731,2.46379 -0.14556,3.79857 -1.188,2.58739 -3.17858,3.41503 -5.96477,2.55094 -3.56571,-1.22698 -7.14578,-2.3971 -10.73833,-3.51023 -6.98107,-2.14291 -14.0081,-4.07062 -21.06728,-5.78225 -0.83373,2.05917 -1.61594,4.0224 -2.34628,5.88578 -0.69117,1.84381 -1.31261,3.58093 -1.86474,5.20796 -2.21688,6.53279 -3.07326,10.54679 -2.58753,11.99463 0.3793,1.05582 2.4008,2.20454 6.03939,3.53917 1.69619,0.62216 4.25279,1.52145 7.64991,2.75976 3.40709,1.20977 6.01863,2.23086 7.68269,2.93383 0.53837,0.22742 1.36444,0.47606 2.48484,0.75503 1.13078,0.24982 1.95268,0.49095 2.45962,0.71418 2.84393,1.25231 3.55982,3.38365 2.21169,6.33488 -1.09151,2.38946 -2.85173,3.31242 -5.26651,2.82102 -2.80737,-0.56476 -7.94033,-2.56729 -16.33752,-5.7768 -8.2,-3.13414 -13.14667,-6.06993 -14.75373,-9.28572 -1.74308,-3.46588 -1.19861,-10.04053 1.77343,-19.60052 0.59342,-1.90879 1.28667,-3.98578 2.08064,-6.22485 0.79385,-2.23876 1.67587,-4.65034 2.6459,-7.22681 -0.1166,-0.78932 -0.0559,-1.57211 0.18529,-2.34791 0.3154,-1.01451 0.88642,-1.83541 1.71832,-2.45873 3.32825,-8.4671 5.6377,-14.63973 6.95199,-18.79365 0.34809,-1.10015 0.69824,-2.76396 1.03904,-4.98031 0.35089,-2.25068 0.69378,-3.92281 1.04042,-5.02828 1.11084,-3.54258 3.33231,-4.81278 6.6728,-3.71831 1.39845,0.45819 2.45248,1.28863 3.15453,2.48237 4.28901,0.39409 8.27634,1.01804 11.93904,1.84279 3.69613,0.83706 7.087,1.88268 10.1563,3.11196 7.93011,3.17608 13.83698,6.80145 17.6749,10.55657 1.7775,1.74738 2.18707,3.60403 1.26976,5.55373 -0.53221,1.13117 -1.41069,1.94321 -2.62766,2.44428 -1.35027,0.54276 -2.68689,0.50932 -4.02285,-0.0986 -10e-6,-1e-5 -3e-5,-1e-5 -5e-5,-2e-5 z"
     id="text2"
     style="font-size:96px;font-family:'Comic Sans MS';-inkscape-font-specification:'Comic Sans MS';fill:#00ff00;stroke:#000000;stroke-width:1.562"
     aria-label="MÄXLE"
     inkscape:path-effect="#path-effect3"
     inkscape:original-d="m 306.46094,764.46094 q -2.53125,0 -4.17188,-2.625 -1.40625,-2.25 -2.53125,-7.5 l -1.6875,-8.0625 q -1.92187,-7.5 -6.09375,-33.09375 l -9.375,28.26562 -2.76562,8.90625 q -1.6875,5.29688 -3.51563,8.67188 -1.96875,3.5625 -5.29687,3.5625 -2.76563,0 -4.35938,-3 -1.03125,-1.96875 -1.875,-5.01563 l -1.35937,-5.20312 q -4.73438,-16.54688 -8.34375,-35.4375 l -1.6875,8.39062 -6.04688,24.75 q -0.375,4.35938 -2.34375,12.89063 -1.40625,3.65625 -4.64062,3.65625 -2.29688,0 -3.65625,-1.64063 -1.17188,-1.40625 -1.17188,-3.46875 0,-7.82812 3.23438,-19.21875 l 5.15625,-18.89062 2.71875,-14.76563 q 2.0625,-10.35937 4.35937,-13.54687 1.875,-2.71875 4.64063,-2.71875 3.04687,0 4.54687,3.46875 1.82813,4.17187 3.9375,17.01562 2.48438,15.42188 7.73438,33.375 6.9375,-18.04687 12,-37.59375 l 1.40625,-6.84375 q 0.84375,-4.125 2.20312,-6.65625 1.82813,-3.46875 5.01563,-3.46875 4.03125,0 6.14062,7.78125 0.75,2.67188 1.82813,11.0625 2.76562,21.1875 6.89062,36.1875 l 2.29688,8.0625 q 1.78125,6.46875 1.78125,7.96875 0,2.01563 -1.54688,3.375 -1.5,1.35938 -3.42187,1.35938 z m 67.17187,-2.48438 q -4.3125,0 -7.5,-11.0625 -1.21875,-4.21875 -3.04687,-14.76562 -4.78125,0.65625 -12.51563,2.34375 l -12.46875,2.57812 q -2.34375,6.14063 -8.01562,17.95313 -1.5,2.625 -4.07813,2.625 -1.875,0 -3.375,-1.35938 -1.45312,-1.35937 -1.45312,-3.375 0,-2.25 7.07812,-17.10937 -0.79687,-1.21875 -0.79687,-2.8125 0,-3.79688 4.59375,-4.875 5.34375,-10.03125 13.5,-23.0625 11.10937,-17.76563 13.82812,-17.76563 3.70313,0 5.0625,5.15625 l 2.95313,15.75 6.98437,32.57813 2.67188,7.40625 q 1.35937,3.79687 1.35937,5.0625 0,2.01562 -1.45312,3.375 -1.45313,1.35937 -3.32813,1.35937 z m -16.54687,-53.57812 -13.40625,21.60937 q 5.67187,-1.45312 17.20312,-3.51562 z m -9.14063,-33.23438 q 6.14063,0 6.14063,4.92188 0,1.40625 -2.0625,2.71875 -1.875,1.17187 -3.51563,1.17187 -5.76562,0 -5.76562,-4.82812 0,-1.35938 1.73437,-2.67188 1.78125,-1.3125 3.46875,-1.3125 z m 25.26563,-0.375 q 1.59375,0 3.23437,1.5 1.64063,1.45313 1.64063,2.85938 0,4.3125 -6.70313,4.3125 -1.92187,0 -3.42187,-0.98438 -1.6875,-1.125 -1.6875,-2.95312 0,-3.23438 2.10937,-4.17188 1.17188,-0.5625 4.82813,-0.5625 z m 76.6875,22.54688 q -6.28125,7.59375 -9.65625,12.51562 l -5.85938,8.625 q -3.42187,4.875 -6.42187,8.20313 l 10.3125,15.09375 q 6.14062,8.95312 10.92187,14.625 1.26563,1.54687 1.26563,3.23437 0,1.96875 -1.45313,3.42188 -1.40625,1.45312 -3.375,1.45312 -1.78125,0 -3.32812,-1.45312 -3.46875,-3.28125 -7.21875,-8.90625 l -6.28125,-9.65625 -7.35938,-10.54688 -16.125,18.65625 -8.625,9.65625 q -1.54687,1.54688 -3.42187,1.54688 -1.92188,0 -3.375,-1.45313 -1.45313,-1.45312 -1.45313,-3.42187 0,-1.6875 1.21875,-3.1875 l 8.4375,-9.42188 17.57813,-20.39062 q -5.15625,-6.89063 -10.96875,-13.82813 l -5.4375,-7.35937 q -3.28125,-4.40625 -6.09375,-6.75 -1.96875,-1.64063 -1.96875,-3.79688 0,-1.92187 1.35937,-3.42187 1.35938,-1.5 3.375,-1.5 3.98438,0 10.17188,8.48437 1.92187,2.85938 5.85937,8.10938 5.34375,6.375 10.17188,12.79687 l 10.6875,-14.90625 q 10.40625,-14.48437 13.5,-14.48437 1.92187,0 3.375,1.45312 1.45312,1.45313 1.45312,3.42188 0,1.64062 -1.26562,3.1875 z m 52.875,61.3125 q -5.29688,2.48437 -16.64063,4.45312 -10.45312,1.82813 -17.0625,1.82813 -4.73437,0 -6.79687,-1.45313 -2.8125,-1.96875 -2.8125,-7.21875 l 0.9375,-15.51562 q 1.21875,-21.46875 1.21875,-47.625 0,-2.01563 1.3125,-3.42188 1.35937,-1.40625 3.32812,-1.40625 2.01563,0 3.32813,1.40625 1.35937,1.40625 1.35937,3.42188 0,26.48437 -1.26562,48.1875 l -0.60938,7.125 q -0.375,3.89062 -0.28125,6.89062 12.23438,0.14063 30.9375,-5.76562 0.79688,-0.23438 1.5,-0.23438 2.01563,0 3.375,1.59375 1.17188,1.45313 1.17188,3.32813 0,3 -3,4.40625 z m 57.09375,-61.17188 q -0.65625,0 -1.45313,-0.23437 -7.92187,-2.25 -15.28125,-2.25 -3.84375,0 -8.39062,0.70312 -4.54688,0.70313 -9.79688,2.15625 0.42188,3.04688 0.42188,4.875 0,6.51563 -0.79688,17.90625 l 20.53125,-1.96875 q 9.04688,-0.9375 11.10938,-0.9375 2.0625,0 3.46875,1.3125 1.40625,1.3125 1.40625,3.51563 0,4.26562 -4.3125,4.78125 l -11.15625,0.98437 -21.65625,1.96875 q -0.1875,3.32813 -0.32813,6.32813 -0.0937,2.95312 -0.0937,5.53125 0,10.35937 1.5,12.1875 1.125,1.3125 7.35938,1.3125 2.90625,0 8.71875,-0.14063 5.85937,-0.1875 8.8125,-0.1875 0.9375,0 2.76562,-0.28125 1.82813,-0.32812 2.71875,-0.32812 4.96875,0 4.96875,4.875 0,3.9375 -3.98437,4.73437 -4.40625,0.89063 -19.07813,0.89063 -14.53125,0 -18.65625,-3.84375 -4.5,-4.17188 -4.5,-19.21875 0,-3 0.14063,-6.5625 0.14062,-3.5625 0.375,-7.6875 -0.51563,-1.07813 -0.51563,-2.29688 0,-1.59375 0.89063,-2.85937 0.9375,-13.54688 0.9375,-20.01563 0,-1.73437 -0.46875,-5.0625 -0.46875,-3.375 -0.46875,-5.10937 0,-5.57813 4.6875,-5.57813 1.96875,0 3.375,1.35938 5.625,-1.5 10.59375,-2.25 5.01562,-0.75 9.42187,-0.75 11.39063,0 18.1875,2.71875 3.14063,1.26562 3.14063,4.5 0,1.875 -1.21875,3.32812 -1.35938,1.59375 -3.375,1.59375 z" />
</svg>
