<?xml version="1.0" encoding="UTF-8" standalone="no"?>
<!-- Uploaded to: SVG Repo, www.svgrepo.com, Generator: SVG Repo Mixer Tools -->

<svg
   height="800"
   width="500"
   version="1.1"
   id="Layer_1"
   viewBox="0 0 320 512"
   xml:space="preserve"
   sodipodi:docname="card_hearts_5.svg"
   inkscape:version="1.4 (86a8ad7, 2024-10-11)"
   xmlns:inkscape="http://www.inkscape.org/namespaces/inkscape"
   xmlns:sodipodi="http://sodipodi.sourceforge.net/DTD/sodipodi-0.dtd"
   xmlns="http://www.w3.org/2000/svg"
   xmlns:svg="http://www.w3.org/2000/svg"><defs
   id="defs5" /><sodipodi:namedview
   id="namedview5"
   pagecolor="#ffffff"
   bordercolor="#999999"
   borderopacity="1"
   inkscape:showpageshadow="2"
   inkscape:pageopacity="0"
   inkscape:pagecheckerboard="0"
   inkscape:deskcolor="#d1d1d1"
   inkscape:zoom="0.5"
   inkscape:cx="204"
   inkscape:cy="760"
   inkscape:window-width="1278"
   inkscape:window-height="1368"
   inkscape:window-x="1913"
   inkscape:window-y="0"
   inkscape:window-maximized="0"
   inkscape:current-layer="g4"
   showguides="true" />
<g
   id="g5"
   transform="matrix(0.86309668,0,0,1,-60.952751,0)">
	<path
   style="fill:#e6eef4"
   d="M 423.724,0 H 88.276 C 78.522,0 70.621,7.901 70.621,17.655 v 476.69 c 0,9.754 7.901,17.655 17.655,17.655 h 335.448 c 9.754,0 17.655,-7.901 17.655,-17.655 V 17.655 C 441.379,7.901 433.479,0 423.724,0"
   id="path1" />
	<g
   id="g4">
		<path
   style="fill:#d71e00"
   d="m 255.99987,238.34508 c 9.50701,-24.214 29.62504,-44.138 54.88107,-44.138 21.25703,0 40.20105,9.993 52.96607,26.483 16.01302,20.692 27.33003,66.754 -7.71501,101.8 -17.77903,17.778 -100.13213,101.234 -100.13213,101.234 0,0 -82.3531,-83.456 -100.13112,-101.235 -35.04604,-35.046 -23.72903,-81.108 -7.71501,-101.8 12.76501,-16.49 31.70904,-26.483 52.96606,-26.483 25.25504,0.001 45.37306,19.925 54.88007,44.139"
   id="path2-0"
   sodipodi:nodetypes="csccccccc" />
		<path
   style="fill:#d71e00"
   d="m 150.069,44.138 c 4.875,0 8.828,-3.952 8.828,-8.828 0,-4.876 -3.952,-8.828 -8.828,-8.828 h -44.138 c -4.875,0 -8.828,3.952 -8.828,8.828 0,4.876 3.952,8.828 8.828,8.828 z"
   id="path2" />
		<path
   style="fill:#d71e00"
   d="m 97.103,79.448 c 0,4.875 3.952,8.828 8.828,8.828 4.875,0 8.828,-3.952 8.828,-8.828 V 35.31 c 0,-4.875 -3.952,-8.828 -8.828,-8.828 -4.875,0 -8.828,3.952 -8.828,8.828 z"
   id="path3" />
		<path
   style="fill:#d71e00"
   d="m 126.535,134.376 c 20.041,0 36.29,-16.249 36.29,-36.29 0,-20.041 -16.249,-36.29 -36.29,-36.29 -10.545,0 -20.385,4.533 -27.223,12.283 -3.226,3.656 -2.877,9.234 0.779,12.46 3.656,3.226 9.234,2.877 12.46,-0.779 3.519,-3.988 8.556,-6.308 13.984,-6.308 10.29,0 18.635,8.345 18.635,18.635 0,10.29 -8.345,18.635 -18.635,18.635 -5.428,0 -10.459,-2.322 -13.984,-6.317 -3.226,-3.656 -8.804,-4.004 -12.46,-0.779 -3.656,3.226 -4.004,8.804 -0.779,12.46 6.841,7.753 16.674,12.29 27.223,12.29 z"
   id="path4" />
	</g>
</g>
</svg>
