<?xml version="1.0" encoding="UTF-8" standalone="no"?>
<!-- Uploaded to: SVG Repo, www.svgrepo.com, Generator: SVG Repo Mixer Tools -->

<svg
   height="800"
   width="500"
   version="1.1"
   id="Layer_1"
   viewBox="0 0 320 512"
   xml:space="preserve"
   sodipodi:docname="card_black_darkblue.svg"
   inkscape:version="1.4 (86a8ad7, 2024-10-11)"
   xmlns:inkscape="http://www.inkscape.org/namespaces/inkscape"
   xmlns:sodipodi="http://sodipodi.sourceforge.net/DTD/sodipodi-0.dtd"
   xmlns="http://www.w3.org/2000/svg"
   xmlns:svg="http://www.w3.org/2000/svg"><defs
   id="defs12" /><sodipodi:namedview
   id="namedview12"
   pagecolor="#ffffff"
   bordercolor="#999999"
   borderopacity="1"
   inkscape:showpageshadow="2"
   inkscape:pageopacity="0"
   inkscape:pagecheckerboard="0"
   inkscape:deskcolor="#d1d1d1"
   inkscape:zoom="1.4142136"
   inkscape:cx="364.8671"
   inkscape:cy="428.86026"
   inkscape:window-width="2560"
   inkscape:window-height="1377"
   inkscape:window-x="1912"
   inkscape:window-y="-8"
   inkscape:window-maximized="1"
   inkscape:current-layer="Layer_1" />
<g
   id="g12"
   transform="matrix(1.0059643,0,0,1.1145204,-97.71089,-29.495666)">
	<path
   style="fill:#e6eef4;stroke-width:0.877394"
   d="M 400.0867,26.464882 H 112.2792 c -8.36873,0 -15.147629,7.089148 -15.147629,15.840894 V 470.01443 c 0,8.75175 6.778899,15.84089 15.147629,15.84089 h 287.8075 c 8.36873,0 15.14762,-7.08914 15.14762,-15.84089 V 42.305776 c 0,-8.751746 -6.77804,-15.840894 -15.14762,-15.840894"
   id="path1" />
	
</g>
<g
   id="g11"
   transform="matrix(1.0069313,0,0,1.1153797,-97.776061,-29.5372)"
   style="stroke-width:0.99968;stroke-dasharray:none;fill:#0031f1;fill-opacity:1">
		<path
   style="fill:#0031f1;stroke-width:0.99968;stroke-dasharray:none;fill-opacity:1"
   d="m 406.069,485.517 c 4.875,0 8.828,-3.952 8.828,-8.828 V 35.31 c 0,-4.875 -3.952,-8.828 -8.828,-8.828 H 105.931 c -4.875,0 -8.828,3.952 -8.828,8.828 v 441.38 c 0,4.875 3.952,8.828 8.828,8.828 H 406.069 Z M 114.759,476.69 V 35.31 l -8.828,8.828 h 300.138 l -8.828,-8.828 v 441.38 l 8.828,-8.828 H 105.931 Z"
   id="path2" />
		<path
   style="fill:#0031f1;stroke-width:0.99968;stroke-dasharray:none;fill-opacity:1"
   d="m 99.691,104.376 c -3.447,3.447 -3.447,9.037 0,12.484 3.447,3.447 9.037,3.447 12.484,0 l 75.308,-75.308 c 3.447,-3.447 3.447,-9.037 0,-12.484 -3.447,-3.447 -9.037,-3.447 -12.484,0 z"
   id="path3" />
		<path
   style="fill:#0031f1;stroke-width:0.99968;stroke-dasharray:none;fill-opacity:1"
   d="m 262.383,41.557 c 3.447,-3.447 3.447,-9.037 0,-12.484 -3.447,-3.447 -9.037,-3.447 -12.484,0 l -150.21,150.21 c -3.447,3.447 -3.447,9.037 0,12.484 3.447,3.447 9.037,3.447 12.484,0 z"
   id="path4" />
		<path
   style="fill:#0031f1;stroke-width:0.99968;stroke-dasharray:none;fill-opacity:1"
   d="m 337.294,41.551 c 3.447,-3.447 3.447,-9.037 0,-12.484 -3.447,-3.447 -9.037,-3.447 -12.484,0 L 99.689,254.188 c -3.447,3.447 -3.447,9.037 0,12.484 3.447,3.447 9.037,3.447 12.484,0 z"
   id="path5" />
		<path
   style="fill:#0031f1;stroke-width:0.99968;stroke-dasharray:none;fill-opacity:1"
   d="m 412.196,41.553 c 3.447,-3.447 3.447,-9.037 0,-12.484 -3.447,-3.447 -9.037,-3.447 -12.484,0 L 99.689,329.092 c -3.447,3.447 -3.447,9.037 0,12.484 3.447,3.447 9.037,3.447 12.484,0 z"
   id="path6" />
		<path
   style="fill:#0031f1;stroke-width:0.99968;stroke-dasharray:none;fill-opacity:1"
   d="m 412.311,116.342 c 3.447,-3.447 3.447,-9.037 0,-12.484 -3.447,-3.447 -9.037,-3.447 -12.484,0 L 99.689,403.996 c -3.447,3.447 -3.447,9.037 0,12.484 3.447,3.447 9.037,3.447 12.484,0 z"
   id="path7" />
		<path
   style="fill:#0031f1;stroke-width:0.99968;stroke-dasharray:none;fill-opacity:1"
   d="m 412.315,191.244 c 3.447,-3.447 3.447,-9.037 0,-12.484 -3.447,-3.447 -9.037,-3.447 -12.484,0 L 114.797,463.793 c -3.447,3.447 -3.447,9.037 0,12.484 3.447,3.447 9.037,3.447 12.484,0 z"
   id="path8" />
		<path
   style="fill:#0031f1;stroke-width:0.99968;stroke-dasharray:none;fill-opacity:1"
   d="m 183.048,470.447 c -3.447,3.447 -3.447,9.037 0,12.484 3.447,3.447 9.037,3.447 12.484,0 L 412.311,266.152 c 3.447,-3.447 3.447,-9.037 0,-12.484 -3.447,-3.447 -9.037,-3.447 -12.484,0 z"
   id="path9" />
		<path
   style="fill:#0031f1;stroke-width:0.99968;stroke-dasharray:none;fill-opacity:1"
   d="m 257.95,470.449 c -3.447,3.447 -3.447,9.037 0,12.484 3.447,3.447 9.037,3.447 12.484,0 L 412.311,341.056 c 3.447,-3.447 3.447,-9.037 0,-12.484 -3.447,-3.447 -9.037,-3.447 -12.484,0 z"
   id="path10" />
		<path
   style="fill:#0031f1;stroke-width:0.99968;stroke-dasharray:none;fill-opacity:1"
   d="m 412.315,415.957 c 3.447,-3.447 3.447,-9.037 0,-12.484 -3.447,-3.447 -9.037,-3.447 -12.484,0 l -66.975,66.975 c -3.447,3.447 -3.447,9.037 0,12.484 3.447,3.447 9.037,3.447 12.484,0 z"
   id="path11" />
	</g></svg>
