<?xml version="1.0" encoding="UTF-8" standalone="no"?>
<!-- Uploaded to: SVG Repo, www.svgrepo.com, Generator: SVG Repo Mixer Tools -->

<svg
   height="800"
   width="500"
   version="1.1"
   id="Layer_1"
   viewBox="0 0 320 512"
   xml:space="preserve"
   sodipodi:docname="card_hearts_4.svg"
   inkscape:version="1.4 (86a8ad7, 2024-10-11)"
   xmlns:inkscape="http://www.inkscape.org/namespaces/inkscape"
   xmlns:sodipodi="http://sodipodi.sourceforge.net/DTD/sodipodi-0.dtd"
   xmlns="http://www.w3.org/2000/svg"
   xmlns:svg="http://www.w3.org/2000/svg"><defs
   id="defs6" /><sodipodi:namedview
   id="namedview6"
   pagecolor="#ffffff"
   bordercolor="#999999"
   borderopacity="1"
   inkscape:showpageshadow="2"
   inkscape:pageopacity="0"
   inkscape:pagecheckerboard="0"
   inkscape:deskcolor="#d1d1d1"
   inkscape:zoom="0.51928154"
   inkscape:cx="152.13327"
   inkscape:cy="702.89423"
   inkscape:window-width="1278"
   inkscape:window-height="1368"
   inkscape:window-x="1913"
   inkscape:window-y="0"
   inkscape:window-maximized="0"
   inkscape:current-layer="g6" />
<g
   id="g6"
   transform="matrix(0.86309668,0,0,1,-60.952751,0)">
	<path
   style="fill:#e6eef4"
   d="M 423.724,0 H 88.276 C 78.522,0 70.621,7.901 70.621,17.655 v 476.69 c 0,9.754 7.901,17.655 17.655,17.655 h 335.448 c 9.754,0 17.655,-7.901 17.655,-17.655 V 17.655 C 441.379,7.901 433.479,0 423.724,0"
   id="path1" /><path
   style="fill:#d71e00"
   d="m 255.99972,238.34508 c 9.507,-24.214 29.625,-44.138 54.881,-44.138 21.257,0 40.201,9.993 52.966,26.483 16.013,20.692 27.33,66.754 -7.715,101.8 -17.779,17.778 -100.132,101.234 -100.132,101.234 0,0 -82.353,-83.456 -100.131,-101.235 -35.046,-35.046 -23.729,-81.108 -7.715,-101.8 12.765,-16.49 31.709,-26.483 52.966,-26.483 25.255,0.001 45.373,19.925 54.88,44.139"
   id="path5-2" />
	<g
   id="g5">
		
		<path
   style="fill:#d71e00"
   d="m 98.869,100.634 c -2.925,3.9 -2.135,9.433 1.766,12.359 3.9,2.925 9.433,2.135 12.359,-1.766 L 165.96,40.606 c 2.925,-3.9 2.135,-9.433 -1.766,-12.359 -3.9,-2.925 -9.433,-2.135 -12.359,1.766 z"
   id="path2" />
		<path
   style="fill:#d71e00"
   d="m 150.069,141.241 c 0,4.875 3.952,8.828 8.828,8.828 4.876,0 8.828,-3.952 8.828,-8.828 V 35.31 c 0,-4.875 -3.952,-8.828 -8.828,-8.828 -4.876,0 -8.828,3.952 -8.828,8.828 z"
   id="path3" />
		<path
   style="fill:#d71e00"
   d="m 105.931,97.103 c -4.875,0 -8.828,3.952 -8.828,8.828 0,4.875 3.952,8.828 8.828,8.828 h 70.621 c 4.875,0 8.828,-3.952 8.828,-8.828 0,-4.875 -3.952,-8.828 -8.828,-8.828 z"
   id="path4" />
		<path
   style="fill:#d71e00"
   d="m 176.552,150.069 c 4.875,0 8.828,-3.952 8.828,-8.828 0,-4.876 -3.952,-8.828 -8.828,-8.828 h -35.31 c -4.875,0 -8.828,3.952 -8.828,8.828 0,4.876 3.952,8.828 8.828,8.828 z"
   id="path5" />
	</g>
</g>
</svg>
