<?xml version="1.0" encoding="UTF-8" standalone="no"?>
<!-- Uploaded to: SVG Repo, www.svgrepo.com, Generator: SVG Repo Mixer Tools -->

<svg
   height="800"
   width="500"
   version="1.1"
   id="Layer_1"
   viewBox="0 0 320 512"
   xml:space="preserve"
   sodipodi:docname="card_diamonds_4.svg"
   inkscape:version="1.4 (86a8ad7, 2024-10-11)"
   xmlns:inkscape="http://www.inkscape.org/namespaces/inkscape"
   xmlns:sodipodi="http://sodipodi.sourceforge.net/DTD/sodipodi-0.dtd"
   xmlns="http://www.w3.org/2000/svg"
   xmlns:svg="http://www.w3.org/2000/svg"><defs
   id="defs6" /><sodipodi:namedview
   id="namedview6"
   pagecolor="#ffffff"
   bordercolor="#999999"
   borderopacity="1"
   inkscape:showpageshadow="2"
   inkscape:pageopacity="0"
   inkscape:pagecheckerboard="0"
   inkscape:deskcolor="#d1d1d1"
   inkscape:zoom="1.46875"
   inkscape:cx="399.65957"
   inkscape:cy="400"
   inkscape:window-width="2560"
   inkscape:window-height="1377"
   inkscape:window-x="1912"
   inkscape:window-y="-8"
   inkscape:window-maximized="1"
   inkscape:current-layer="Layer_1" />
<g
   id="g6"
   transform="matrix(0.86309668,0,0,1,-60.952751,0)">
	<path
   style="fill:#e6eef4"
   d="M 423.724,0 H 88.276 C 78.522,0 70.621,7.901 70.621,17.655 v 476.69 c 0,9.754 7.901,17.655 17.655,17.655 h 335.448 c 9.754,0 17.655,-7.901 17.655,-17.655 V 17.655 C 441.379,7.901 433.479,0 423.724,0"
   id="path1" />
	<g
   id="g5">
		<polygon
   style="fill:#d71e00"
   points="150.069,308.966 256,441.379 361.931,308.966 256,176.552 "
   id="polygon1" />
		<path
   style="fill:#d71e00"
   d="m 98.869,100.634 c -2.925,3.9 -2.135,9.433 1.766,12.359 3.9,2.925 9.433,2.135 12.359,-1.766 L 165.96,40.606 c 2.925,-3.9 2.135,-9.433 -1.766,-12.359 -3.9,-2.925 -9.433,-2.135 -12.359,1.766 z"
   id="path2" />
		<path
   style="fill:#d71e00"
   d="m 150.069,141.241 c 0,4.875 3.952,8.828 8.828,8.828 4.876,0 8.828,-3.952 8.828,-8.828 V 35.31 c 0,-4.875 -3.952,-8.828 -8.828,-8.828 -4.876,0 -8.828,3.952 -8.828,8.828 z"
   id="path3" />
		<path
   style="fill:#d71e00"
   d="m 105.931,97.103 c -4.875,0 -8.828,3.952 -8.828,8.828 0,4.875 3.952,8.828 8.828,8.828 h 70.621 c 4.875,0 8.828,-3.952 8.828,-8.828 0,-4.875 -3.952,-8.828 -8.828,-8.828 z"
   id="path4" />
		<path
   style="fill:#d71e00"
   d="m 176.552,150.069 c 4.875,0 8.828,-3.952 8.828,-8.828 0,-4.876 -3.952,-8.828 -8.828,-8.828 h -35.31 c -4.875,0 -8.828,3.952 -8.828,8.828 0,4.876 3.952,8.828 8.828,8.828 z"
   id="path5" />
	</g>
</g>
</svg>
